<svg id="Layer_1" data-name="Layer 1" xmlns="http://www.w3.org/2000/svg" viewBox="0 0 713.88 713.93"><defs><style>.cls-1{fill:#3fa9f5;}</style></defs><path class="cls-1" d="M391.59.45,383,4.56a452.4,452.4,0,0,0-85.69,53.49A444.21,444.21,0,0,0,258,93.15,454.71,454.71,0,0,0,203.73,159a467.92,467.92,0,0,0-28.4,47.82,7.81,7.81,0,0,1-2.83,3.12,336.82,336.82,0,0,0-50.09,39.77,332.8,332.8,0,0,0-64.25,85.56q-3.61,6.88-7,13.89A19.38,19.38,0,0,0,51,366.7,337.28,337.28,0,0,0,210,525.51a334.11,334.11,0,0,0,74,25.26,324.85,324.85,0,0,0,33.79,5.5c7.78.83,15.61,1.32,23.42,1.65,7.51.32,15,.49,22.54.25,8.21-.27,16.42-1,24.61-1.68A298.37,298.37,0,0,0,430,549.67a333.2,333.2,0,0,0,58.63-19.39,4.58,4.58,0,0,1,2.35-.47c-.55.76-1.1,1.53-1.66,2.29a449.13,449.13,0,0,1-33.79,40.5,465.18,465.18,0,0,1-77.43,66,489.27,489.27,0,0,1-49.38,29.52,491.66,491.66,0,0,1-81.92,33.72,423.77,423.77,0,0,1-42.7,10.86,58.34,58.34,0,0,1-11.88,1.22c-20.24-.09-40.48,0-60.72-.06a129,129,0,0,1-53-11.61A133.48,133.48,0,0,1,2.77,607.53,120.05,120.05,0,0,1,.26,585.66c-.07-4-.23-8-.23-12Q0,353.36.06,133c0-29.09,8.63-55.62,26.1-79C45.55,28.12,71.08,11.21,102.61,3.58A129,129,0,0,1,133,.06H391.49Z"/><path class="cls-1" d="M241,175.36c2.78-3.8,5.5-7.64,8.34-11.4a411.6,411.6,0,0,1,95.47-91.28,418.15,418.15,0,0,1,59.5-34A443.2,443.2,0,0,1,481.58,11c15.25-3.93,30.68-7,46.22-9.43A118.94,118.94,0,0,1,548.54,0c12.15.21,24.32-.08,36.47.16a127.61,127.61,0,0,1,42.82,8.4,133.85,133.85,0,0,1,83.81,99.57,120.9,120.9,0,0,1,2.24,23.34q0,225.59,0,451.17c0,27.5-8.38,52.52-24.23,75a132.12,132.12,0,0,1-53.67,44.47,128.8,128.8,0,0,1-35.28,10.38,145,145,0,0,1-21,1.43q-124.68,0-249.35,0h-2.87l-.15-.37,2.38-1.15a536.63,536.63,0,0,0,52.18-28.49,520.54,520.54,0,0,0,66.91-49.36c11.36-9.87,22.3-20.17,32.68-31a490.54,490.54,0,0,0,45.2-54.67,497.72,497.72,0,0,0,36.13-59.1c.85-1.62,1.51-3.35,2.36-5a6.5,6.5,0,0,1,1.59-2,353.36,353.36,0,0,0,29.82-27.43,337.94,337.94,0,0,0,60-85.44c3-6.09,3.39-12.19.57-18.48-1.1-2.46-1.71-5.15-2.86-7.58a300.6,300.6,0,0,0-18.35-32.85,335.3,335.3,0,0,0-203-145.44,321.76,321.76,0,0,0-35.54-6.63,256.51,256.51,0,0,0-27-2.37c-9.75-.2-19.5-.46-29.25-.21a296.29,296.29,0,0,0-33.62,3,337.62,337.62,0,0,0-59.6,14.1c-2.19.73-4.36,1.52-6.53,2.28Z"/><path class="cls-1" d="M595.26,322.64c-3.86-2.28-7.53-4.5-11.25-6.64-18-10.34-36.48-19.6-56-26.64a345.63,345.63,0,0,0-50.58-13.77c-8.69-1.72-17.41-3.31-26.17-4.63-7.42-1.12-14.9-1.93-22.37-2.58-8.91-.77-17.84-1.46-26.77-1.73q-14-.43-28.07.05c-8.53.28-17.08.84-25.56,1.81-17.9,2-34.38,7.85-48.45,19.52a68.47,68.47,0,0,0-11,11.28,131.66,131.66,0,0,0-10.18,14.51,85.67,85.67,0,0,0-10.57,31.61c-2.81,21.92,2,42.06,14.11,60.5a6.27,6.27,0,0,1,.36.62,3.38,3.38,0,0,1,.07.47,16.58,16.58,0,0,1-2.23,0c-9.18-1.21-18.38-2.31-27.53-3.7a392.26,392.26,0,0,1-40.94-8.89c-21.32-5.63-41.26-14.53-60.59-25a364.46,364.46,0,0,1-46.16-29.66c-.71-.53-1.39-1.08-2.08-1.63a5,5,0,0,1-.45-.7,291.4,291.4,0,0,1,72.79-80.81q66.79-50.81,150.34-59.29a287.66,287.66,0,0,1,123.27,14.55,293.17,293.17,0,0,1,100.33,58.75C565.84,285.15,591,313.79,595.26,322.64Z"/><path class="cls-1" d="M114.19,394.22c4.35,2.52,8.67,5.11,13.07,7.55,20,11.11,40.59,21,62.55,27.77a384,384,0,0,0,45.33,11.19c9.67,1.72,19.36,3.31,29.09,4.63,7.35,1,14.77,1.6,22.18,2.1,7.88.53,15.79.92,23.7,1,9,.13,18.05.1,27.07-.25,7.65-.3,15.31-.91,22.91-1.85a94.13,94.13,0,0,0,36-11.82,96.56,96.56,0,0,0,22.06-16.8,87.39,87.39,0,0,0,22.95-44.3,85.46,85.46,0,0,0,1.34-22.68,86.73,86.73,0,0,0-12.93-40c-.41-.67-.83-1.33-1.45-2.33,1.66.11,3,.13,4.41.3,11,1.36,22,2.95,32.89,5.1a376.24,376.24,0,0,1,46.11,12,241.1,241.1,0,0,1,27.18,11.38A365.74,365.74,0,0,1,603.54,377c.58.43,1.14.88,1.7,1.34a1.83,1.83,0,0,1,.29.37C564.37,447.36,481,509.9,376.62,517.48q-89.5,6.49-167.74-37.69a294.54,294.54,0,0,1-95.06-85.22Z"/></svg>